<svg xmlns="http://www.w3.org/2000/svg" width="46.469" height="72.718" viewBox="0 0 46.469 72.718">
  <defs>
    <style>
      .cls-1 {
        fill: #159822;
        fill-rule: evenodd;
      }
    </style>
  </defs>
  <path id="Фигура_33" data-name="Фигура 33" class="cls-1" d="M467.105,961.521a1.458,1.458,0,0,0-1.883.791,1.694,1.694,0,0,1-1.569,1.016h-5.29a1.7,1.7,0,0,1-1.569-1.016,1.458,1.458,0,0,0-1.883-.791,1.411,1.411,0,0,0-.805,1.847,4.553,4.553,0,0,0,4.257,2.8h5.29a4.555,4.555,0,0,0,4.258-2.8A1.412,1.412,0,0,0,467.105,961.521Zm17.008-7.319a7.015,7.015,0,0,0-3.429-4.729,7.2,7.2,0,0,0,.908-0.865,6.982,6.982,0,0,0,1.666-5.669,17.733,17.733,0,0,0-4.158-8.954,18.257,18.257,0,0,0-5.969-4.517,16.079,16.079,0,0,0,4.5-11.142,16.385,16.385,0,0,0-12.087-15.688,6.076,6.076,0,0,0,1.467-3.968,5.3,5.3,0,0,0-5.34-5.238h0a4.912,4.912,0,0,0-3.134,1.067,3.849,3.849,0,0,0-1.427,3.01,1.448,1.448,0,0,0,2.9,0,1.044,1.044,0,0,1,.4-0.837,1.985,1.985,0,0,1,1.269-.4h0a2.423,2.423,0,0,1,2.443,2.4,3.293,3.293,0,0,1-1,2.37,3.421,3.421,0,0,1-2.415.982h0c-0.036,0-.07,0-0.105.006a16.474,16.474,0,0,0-16.2,16.3,16.084,16.084,0,0,0,4.5,11.142,18.268,18.268,0,0,0-5.969,4.517,17.74,17.74,0,0,0-4.157,8.954,6.975,6.975,0,0,0,1.666,5.669,7.187,7.187,0,0,0,.907.865A7.016,7.016,0,0,0,437.9,954.2a6.91,6.91,0,0,0,1.388,5.656l3.1,3.888a6.549,6.549,0,0,0,8.287,1.577,6.285,6.285,0,0,0,2.752-7.829l-1.882-4.578a6.764,6.764,0,0,0-.44-0.881h10.622a1.421,1.421,0,1,0,0-2.842H448.357V946.2a0.707,0.707,0,0,1,.713-0.7h23.876a0.707,0.707,0,0,1,.713.7v3.191a7.054,7.054,0,0,0-3.193,3.526l-1.881,4.578a6.284,6.284,0,0,0,2.751,7.829,6.55,6.55,0,0,0,8.288-1.577l3.1-3.888A6.909,6.909,0,0,0,484.113,954.2Zm-36.829-35.876a13.727,13.727,0,1,1,13.724,13.463A13.611,13.611,0,0,1,447.284,918.326Zm1.581,35.652,1.881,4.579a3.458,3.458,0,0,1-1.514,4.306,3.6,3.6,0,0,1-4.558-.868l-3.1-3.887a4.106,4.106,0,0,1-.826-3.365,4.174,4.174,0,0,1,2.048-2.818,4.328,4.328,0,0,1,3.512-.331A4.218,4.218,0,0,1,448.865,953.978Zm24.091-14.162a1.435,1.435,0,0,0-1.448,1.421v1.421h-20.99v-1.421a1.448,1.448,0,0,0-2.9,0v1.719a3.545,3.545,0,0,0-2.161,3.243v2a4.34,4.34,0,0,1-2.841-1.449,4.177,4.177,0,0,1-1-3.393,15.061,15.061,0,0,1,9.662-11.821,16.844,16.844,0,0,0,19.447,0,15.062,15.062,0,0,1,9.661,11.821,4.177,4.177,0,0,1-1,3.393,4.342,4.342,0,0,1-2.842,1.449v-2a3.542,3.542,0,0,0-2.151-3.238v-1.724A1.435,1.435,0,0,0,472.956,939.816Zm7.488,18.292-3.1,3.887a3.6,3.6,0,0,1-4.559.868,3.457,3.457,0,0,1-1.513-4.307l1.881-4.578a4.218,4.218,0,0,1,2.558-2.384,4.324,4.324,0,0,1,3.512.331,4.173,4.173,0,0,1,2.048,2.818A4.113,4.113,0,0,1,480.444,958.108Zm-11.936-8.5a1.467,1.467,0,0,0-2.047,0,1.4,1.4,0,0,0,0,2.009,1.467,1.467,0,0,0,2.047,0A1.4,1.4,0,0,0,468.508,949.609ZM465,923.178a1.468,1.468,0,0,0-2.037.209,2.546,2.546,0,0,1-3.912,0,1.466,1.466,0,0,0-2.036-.209,1.4,1.4,0,0,0-.214,2,5.479,5.479,0,0,0,8.412,0A1.4,1.4,0,0,0,465,923.178Zm-7.652-5.857a3.421,3.421,0,0,0-4.765,0,1.4,1.4,0,0,0,0,2.01,1.468,1.468,0,0,0,2.048,0,0.48,0.48,0,0,1,.669,0,1.468,1.468,0,0,0,2.048,0A1.4,1.4,0,0,0,457.349,917.321Zm12.084,0a3.421,3.421,0,0,0-4.765,0,1.4,1.4,0,0,0,0,2.01,1.468,1.468,0,0,0,2.048,0,0.48,0.48,0,0,1,.669,0,1.468,1.468,0,0,0,2.048,0A1.4,1.4,0,0,0,469.433,917.321Z" transform="translate(-437.781 -893.438)"/>
</svg>
