<svg xmlns="http://www.w3.org/2000/svg" width="14" height="14.031" viewBox="0 0 14 14.031">
  <defs>
    <style>
      .cls-1 {
        fill: #a1a0a0;
        fill-rule: evenodd;
      }
    </style>
  </defs>
  <path id="Фигура_22" data-name="Фигура 22" class="cls-1" d="M213.825,88.815a0.709,0.709,0,0,0-.054-0.989l-6.256-5.669a0.758,0.758,0,0,0-1.017.012l-6.278,5.959a0.705,0.705,0,0,0-.03.988l0.158,0.17a0.67,0.67,0,0,0,.942.074l0.469-.435V95.3a0.7,0.7,0,0,0,.683.707h2.446a0.7,0.7,0,0,0,.683-0.707V90.839h3.121V95.3a0.659,0.659,0,0,0,.642.707h2.593a0.7,0.7,0,0,0,.683-0.707v-6.28l0.289,0.263a0.6,0.6,0,0,0,.748-0.261Z" transform="translate(-200 -81.969)"/>
</svg>
