<svg id="Logo" xmlns="http://www.w3.org/2000/svg" width="217" height="44" viewBox="0 0 217 44">
  <defs>
    <style>
      .cls-1 {
        fill: #fff;
      }

      .cls-1, .cls-2 {
        fill-rule: evenodd;
      }

      .cls-2 {
        fill: #159822;
      }
    </style>
  </defs>
  <path id="Фигура_3" data-name="Фигура 3" class="cls-1" d="M574.11,33.524h0c0-.017-0.008-0.084-0.006-0.069a9.309,9.309,0,0,0-.57-2.31,8.041,8.041,0,0,0-1.814-2.8,7.479,7.479,0,0,0-2.7-1.7,9.452,9.452,0,0,0-3.286-.568,9.213,9.213,0,0,0-3.225.568,7.6,7.6,0,0,0-2.7,1.7,8.234,8.234,0,0,0-1.851,2.8,9.24,9.24,0,0,0-.6,2.378h0a12.432,12.432,0,0,0-.086,1.486,10.406,10.406,0,0,0,.662,3.863,7.917,7.917,0,0,0,1.814,2.789,7.542,7.542,0,0,0,2.7,1.691,9.452,9.452,0,0,0,3.286.568,9.7,9.7,0,0,0,3.347-.568,7.284,7.284,0,0,0,2.686-1.691,7.939,7.939,0,0,0,1.777-2.789,10.578,10.578,0,0,0,.65-3.863A12.823,12.823,0,0,0,574.11,33.524Zm-4.168,3.757a5.223,5.223,0,0,1-.883,1.74,3.886,3.886,0,0,1-1.422,1.123,4.791,4.791,0,0,1-3.814,0,3.9,3.9,0,0,1-1.41-1.123,5.2,5.2,0,0,1-.882-1.74,7.8,7.8,0,0,1-.307-2.271,8.545,8.545,0,0,1,.124-1.481,7.428,7.428,0,0,1,.183-0.779A5.189,5.189,0,0,1,562.413,31a4.031,4.031,0,0,1,1.41-1.135,4.3,4.3,0,0,1,1.913-.407,4.448,4.448,0,0,1,1.9.395,3.89,3.89,0,0,1,1.422,1.123,5.206,5.206,0,0,1,.883,1.753,7.34,7.34,0,0,1,.187.808,8.748,8.748,0,0,1,.119,1.475A7.838,7.838,0,0,1,569.942,37.281ZM554.088,26.468v7.056h0V43.576h-3.825V26.468h3.825ZM547.32,38.886a4.467,4.467,0,0,1-1.668,3.715,8.006,8.006,0,0,1-5.027,1.321,13.8,13.8,0,0,1-2.035-.135,13.059,13.059,0,0,1-1.606-.333,9.224,9.224,0,0,1-1.2-.419,9.113,9.113,0,0,1-.846-0.42l1.078-3.061a9.211,9.211,0,0,0,4.611,1.086,5.509,5.509,0,0,0,1.337-.136,2.465,2.465,0,0,0,.846-0.37,1.244,1.244,0,0,0,.441-0.556,1.981,1.981,0,0,0,.123-0.715,1.657,1.657,0,0,0-.785-1.4,11.177,11.177,0,0,0-2.7-1.2q-0.833-.3-1.667-0.679a6.126,6.126,0,0,1-1.5-.963,4.653,4.653,0,0,1-.911-1.1h0a0.1,0.1,0,0,1-.007-0.012L535.8,33.5h0c-0.054-.091-0.106-0.185-0.155-0.282a4.434,4.434,0,0,1-.417-2.012,5,5,0,0,1,.442-2.136,4.554,4.554,0,0,1,1.25-1.616,5.7,5.7,0,0,1,1.962-1.025,8.741,8.741,0,0,1,2.6-.358,10.347,10.347,0,0,1,5.027,1.185l-1.1,3.037a10.365,10.365,0,0,0-1.582-.654,6.8,6.8,0,0,0-2.1-.284,3.821,3.821,0,0,0-1.974.383,1.292,1.292,0,0,0-.6,1.173,1.354,1.354,0,0,0,.221.79,2.157,2.157,0,0,0,.625.581,5.457,5.457,0,0,0,.932.468q0.526,0.21,1.164.433c0.267,0.1.521,0.2,0.766,0.3h0l0.066,0.026,0.044,0.018h0c0.524,0.213,1,.424,1.427.633a6.172,6.172,0,0,1,1.631,1.123A4.083,4.083,0,0,1,547,36.788,6.1,6.1,0,0,1,547.32,38.886ZM532.067,26.468V43.576h-3.826V26.468h3.826Zm-7.333,3.7c-0.353,1-1.518,4.087-1.618,4.345q-0.883,2.271-1.864,4.592t-1.986,4.468h-3.679q-1-2.148-1.986-4.468c-0.654-1.547-3.123-7.908-3.494-8.937q-0.749-2.073-1.288-3.7h4.218q0.49,1.482,1.067,3.2c0.384,1.143,2.014,5.776,2.342,6.678q0.564,1.556,1.054,2.691,0.466-1.136,1.043-2.691c0.334-.9.83-2.282,1.176-3.259q0.6-1.7,1.178-3.418t1.066-3.2h4.071Q525.47,28.1,524.734,30.171Zm-71.09-3.7v7.056h0V43.576h-3.212q-1.642-2.937-3.556-5.8c-0.944-1.414-2.406-3.346-3.483-4.7-0.2-.238-0.389-0.478-0.588-0.712V43.576h-3.776V26.468h3.114q0.81,0.815,1.79,2t2,2.53c0.548,0.724,1.093,1.474,1.636,2.242h0l0.164,0.233,0.011,0.016,0.025,0.035h0c0.062,0.087.124,0.176,0.185,0.264q1.005,1.445,1.888,2.777v-10.1h3.8ZM436.208,40.342v3.234H424.167V33.524h0V26.468h11.477V29.7h-7.651V33.06h6.793v0.464h0v2.7h-6.793v4.122h8.215Zm-14.86,0v3.234H409.307V26.468h11.476V29.7h-7.651V33.06h6.793v0.464h0v2.7h-6.793v4.122h8.216Zm-15.45,1.32q-0.514-.975-1.067-1.876t-1.115-1.728q-0.566-.827-1.079-1.469A5.409,5.409,0,0,0,405,34.825a3.642,3.642,0,0,0,.618-1.3h0a0.011,0.011,0,0,0,0-.006l0-.008,0-.016h0a6.075,6.075,0,0,0,.2-1.6,4.772,4.772,0,0,0-2.036-4.258,10.476,10.476,0,0,0-5.861-1.37q-1.054,0-2.391.1a21.605,21.605,0,0,0-2.587.345V43.576h3.826V37.331h1.888q0.49,0.592.981,1.32t0.993,1.543q0.5,0.815.981,1.678l0.944,1.7h4.292Q406.413,42.638,405.9,41.663Zm-8.043-7.393h-1.079V29.628c0.2-.017.4-0.033,0.625-0.05s0.47-.024.748-0.024a5.8,5.8,0,0,1,2.783.531,1.885,1.885,0,0,1,.944,1.79,2.06,2.06,0,0,1-.643,1.645,2.085,2.085,0,0,1-.288.207A6.488,6.488,0,0,1,397.855,34.27ZM592,26.468V43.576h-3.213q-1.643-2.937-3.555-5.8c-0.955-1.43-2.455-3.407-3.537-4.76-0.178-.216-0.354-0.434-0.534-0.647V43.576h-3.777V26.468H580.5q0.808,0.815,1.79,2t2,2.53q0.925,1.222,1.839,2.526H586.1l0.207,0.264q1.007,1.445,1.889,2.777v-10.1H592ZM389.4,34.541v8.467a14.29,14.29,0,0,1-2.207.58,19.263,19.263,0,0,1-3.753.309,9.673,9.673,0,0,1-3.469-.593,7.251,7.251,0,0,1-2.661-1.728,7.714,7.714,0,0,1-1.7-2.79,11.008,11.008,0,0,1-.6-3.777,12.932,12.932,0,0,1,.087-1.486h0c0-.006,0-0.035,0-0.044h0a9.151,9.151,0,0,1,.569-2.272,8.19,8.19,0,0,1,1.814-2.8,7.65,7.65,0,0,1,2.71-1.74,9.269,9.269,0,0,1,3.323-.593,13.339,13.339,0,0,1,2.17.16,13.748,13.748,0,0,1,1.668.37,7.7,7.7,0,0,1,1.153.432q0.453,0.222.649,0.346l-1.1,3.085a9.94,9.94,0,0,0-1.8-.728,7.6,7.6,0,0,0-2.219-.309,4.645,4.645,0,0,0-3.862,1.494,5.491,5.491,0,0,0-1.075,2.585,9.86,9.86,0,0,0-.115,1.5,8.274,8.274,0,0,0,.3,2.284,5.024,5.024,0,0,0,.883,1.764,3.969,3.969,0,0,0,1.471,1.148,4.871,4.871,0,0,0,2.059.407q0.639,0,1.092-.025a5.141,5.141,0,0,0,.8-0.1V34.541H389.4Z" transform="translate(-375 -13)"/>
  <path id="Фигура_19" data-name="Фигура 19" class="cls-2" d="M470.284,30.064c0.551,5.742,7.507,9.559,14.42,10.592a69.9,69.9,0,0,1-1.286-13.294c-2.012-.557-5.474-1.341-6.224-1.494a12.823,12.823,0,0,0-2.529-.252C473.138,25.626,469.958,26.664,470.284,30.064Zm28.587,3.594a67.32,67.32,0,0,0-10.661-4.8,36.59,36.59,0,0,1-2.554,11.928C492.583,41.559,499.169,39.485,498.871,33.658ZM504,35a22,22,0,1,1-22-22A22,22,0,0,1,504,35Zm-39.224-9.924a7.782,7.782,0,0,1,2.7-.559c1.6,0.109,3.212.279,4.84,0.5q-1.073-.063-2.131-0.085c-1.885.11-5.745,1.634-5.121,5.954,2.116,14.641,35.6,17.8,35.585,3.725q0.62,0.354,1.23.72c0-.112,0-0.224,0-0.336A19.879,19.879,0,0,0,464.776,25.076Zm34.935,18.951c-8.96,6.7-32.123,2.254-37.594-9A19.88,19.88,0,0,0,499.711,44.026Z" transform="translate(-375 -13)"/>
</svg>
