<svg xmlns="http://www.w3.org/2000/svg" width="24" height="19" viewBox="0 0 24 19">
  <defs>
    <style>
      .cls-1 {
        fill: #fff;
        fill-rule: evenodd;
      }
    </style>
  </defs>
  <path id="Icon_MENU" data-name="Icon MENU" class="cls-1" d="M1522.36,26h21.28a1.359,1.359,0,0,1,1.36,1.357v0a1.359,1.359,0,0,1-1.36,1.357h-21.28a1.359,1.359,0,0,1-1.36-1.357v0A1.359,1.359,0,0,1,1522.36,26Zm-0.02,8.156h21.32a1.344,1.344,0,0,1,0,2.688h-21.32A1.344,1.344,0,0,1,1522.34,34.156Zm0.02,8.125h21.28a1.359,1.359,0,0,1,1.36,1.357v0A1.359,1.359,0,0,1,1543.64,45h-21.28a1.359,1.359,0,0,1-1.36-1.357v0A1.359,1.359,0,0,1,1522.36,42.281Z" transform="translate(-1521 -26)"/>
</svg>
