<svg xmlns="http://www.w3.org/2000/svg" width="59.968" height="66.781" viewBox="0 0 59.968 66.781">
  <defs>
    <style>
      .cls-1 {
        fill: #159822;
        fill-rule: evenodd;
      }
    </style>
  </defs>
  <path id="Фигура_34" data-name="Фигура 34" class="cls-1" d="M785.37,950.246a1.112,1.112,0,0,0-1.11,1.114v1.112a8.1,8.1,0,0,0,15.543,0V951.36a1.11,1.11,0,1,0-2.22,0v1.112a2.221,2.221,0,1,1-4.441,0v-3.549a2.727,2.727,0,0,0,1.033-.677l1.661-1.781a2.233,2.233,0,0,0,.453-2.439,2.765,2.765,0,0,0-2.593-1.572h-3.329a2.763,2.763,0,0,0-2.592,1.572,2.235,2.235,0,0,0,.451,2.439l1.664,1.781a2.72,2.72,0,0,0,1.031.677v3.549a2.221,2.221,0,1,1-4.441,0V951.36A1.112,1.112,0,0,0,785.37,950.246Zm4.44-5.33a0.593,0.593,0,0,1,.557-0.236H793.7c0.378,0,.544.185,0.519,0.263l-1.662,1.782a0.892,0.892,0,0,1-1.042,0ZM778,938.655c1.975-.775,3.548-0.866,4.677-0.268a3.459,3.459,0,0,1,1.605,2.081,1.111,1.111,0,0,0,2.17-.473,5.686,5.686,0,0,0-2.7-3.556c-1.727-.933-3.934-0.885-6.561.142A1.113,1.113,0,0,0,778,938.655Zm19.348,2.661a1.111,1.111,0,0,0,1.317-.857,3.435,3.435,0,0,1,1.583-2.061c1.129-.61,2.71-0.522,4.7.256a1.113,1.113,0,0,0,.81-2.074c-2.627-1.027-4.833-1.075-6.562-.143a5.689,5.689,0,0,0-2.7,3.557A1.113,1.113,0,0,0,797.351,941.316Zm-34.187-1.089a24.635,24.635,0,0,1,3.023.19,19.123,19.123,0,0,0-.8,5.376v0.01a11.27,11.27,0,0,0-2.837,1.29,1.113,1.113,0,1,0,1.232,1.853,8.326,8.326,0,0,1,1.785-.862A14.347,14.347,0,0,0,766.712,952a7.927,7.927,0,0,0-3.548,6.043c0,3.434,3.4,5.566,8.882,5.566a11.51,11.51,0,0,0,7-1.85,46.488,46.488,0,0,0,25.968,0,11.513,11.513,0,0,0,7,1.85c5.478,0,8.882-2.132,8.882-5.566A7.93,7.93,0,0,0,817.351,952a14.347,14.347,0,0,0,1.147-3.911,8.326,8.326,0,0,1,1.785.862,1.113,1.113,0,1,0,1.232-1.853,11.27,11.27,0,0,0-2.837-1.29v-0.01a19.087,19.087,0,0,0-.8-5.376,24.822,24.822,0,0,1,3.023-.19,1.113,1.113,0,0,0,0-2.226,26.978,26.978,0,0,0-3.788.268,24.568,24.568,0,0,0-1.652-3.321c0.731-2.378,3.592-12.38,1.126-15.79a2.758,2.758,0,0,0-2.314-1.2,11.661,11.661,0,0,0-4.716,1.4c-2.84-4.026-7.849-6.854-13.558-7.762a20.124,20.124,0,0,0-.567-4.5,3.388,3.388,0,0,1,1.186-3.3c1.385-.935,3.646.512,4.554,1.177a3.336,3.336,0,1,0,3.93-5.392c-6.094-4.472-10.558-2.429-12.2-1.339a10.038,10.038,0,0,0-3.934,10.427,13.622,13.622,0,0,1,.382,2.755c-6.24.663-11.791,3.6-14.837,7.927a11.626,11.626,0,0,0-4.684-1.395,2.765,2.765,0,0,0-2.319,1.2c-2.457,3.4.39,13.368,1.118,15.742a24.944,24.944,0,0,0-1.675,3.366,26.938,26.938,0,0,0-3.786-.267A1.113,1.113,0,0,0,763.164,940.227Zm2.221,17.811c0-2.5,3.074-5.566,6.661-5.566s6.662,3.061,6.662,5.566c0,1.621-1.493,2.552-3.43,3a3.31,3.31,0,0,0,.1-0.774v-2.227a1.11,1.11,0,1,0-2.22,0v2.227a1.111,1.111,0,1,1-2.221,0v-2.227a1.111,1.111,0,1,0-2.221,0v2.227a3.312,3.312,0,0,0,.1.774C766.878,960.59,765.385,959.659,765.385,958.038Zm53.293,0c0,1.621-1.493,2.552-3.43,3a3.365,3.365,0,0,0,.1-0.774v-2.227a1.111,1.111,0,1,0-2.221,0v2.227a1.111,1.111,0,1,1-2.221,0v-2.227a1.11,1.11,0,1,0-2.22,0v2.227a3.31,3.31,0,0,0,.1.774c-1.937-.449-3.43-1.38-3.43-3,0-2.5,3.074-5.566,6.662-5.566S818.678,955.534,818.678,958.038Zm-27.556-49.892a7.738,7.738,0,0,1,3.01-8.045c1.551-1.029,4.867-2.232,9.658,1.284a1.113,1.113,0,0,1-1.311,1.8c-2.757-2.021-5.279-2.457-7.1-1.23a5.6,5.6,0,0,0-2.107,5.677,18.035,18.035,0,0,1,.506,3.721c-0.579-.039-1.16-0.067-1.747-0.067-0.158,0-.313.011-0.47,0.014A15.882,15.882,0,0,0,791.122,908.146Zm0.91,5.364c6.472,0,12.425,2.68,15.545,6.908-1.488.844-3.13,1.89-4.949,3.168a25.827,25.827,0,0,0-21.17-.01c-1.828-1.278-3.476-2.324-4.967-3.167C779.6,916.187,785.553,913.51,792.032,913.51Zm-21.14,21.2c-2.035-6.248-2.748-12.635-1.588-14.239a0.569,0.569,0,0,1,.522-0.277,10.742,10.742,0,0,1,4.465,1.543,0.165,0.165,0,0,0,.024.022,1.182,1.182,0,0,0,.11.048,56.805,56.805,0,0,1,6.272,3.96,1.106,1.106,0,0,0,1.115.1,23.654,23.654,0,0,1,20.458.01,1.106,1.106,0,0,0,1.12-.1c4.973-3.547,8.939-5.582,10.881-5.582a0.563,0.563,0,0,1,.515.274c1.166,1.613.451,8.021-1.593,14.285a1.116,1.116,0,0,0,.113.937,22.921,22.921,0,0,1,1.571,3,19.589,19.589,0,0,0-6.857,2.879,1.112,1.112,0,0,0,1.329,1.783,18.245,18.245,0,0,1,6.321-2.553,17.2,17.2,0,0,1,.765,4.445,32.168,32.168,0,0,0-5.529-.558,1.113,1.113,0,0,0,0,2.226,30.934,30.934,0,0,1,5.446.583,12.257,12.257,0,0,1-.946,3.428,8.978,8.978,0,0,0-3.389-.671c-5,0-8.883,4.189-8.883,7.792a4.544,4.544,0,0,0,.383,1.853,45.1,45.1,0,0,1-22.971,0,4.527,4.527,0,0,0,.382-1.853c0-3.6-3.879-7.792-8.882-7.792a8.978,8.978,0,0,0-3.389.671,12.257,12.257,0,0,1-.946-3.428,30.944,30.944,0,0,1,5.446-.583,1.113,1.113,0,0,0,0-2.226,32.158,32.158,0,0,0-5.529.558,17.244,17.244,0,0,1,.764-4.444,18.228,18.228,0,0,1,6.322,2.552,1.112,1.112,0,0,0,1.329-1.783,19.561,19.561,0,0,0-6.859-2.879,23.039,23.039,0,0,1,1.594-3.042A1.115,1.115,0,0,0,770.892,934.706Z" transform="translate(-762.063 -896.813)"/>
</svg>
