<svg xmlns="http://www.w3.org/2000/svg" width="18.969" height="19" viewBox="0 0 18.969 19">
  <defs>
    <style>
      .cls-1 {
        fill: #fff;
        fill-rule: evenodd;
      }
    </style>
  </defs>
  <path id="Фигура_21" data-name="Фигура 21" class="cls-1" d="M984.5,40.651l-3.842-2.564a1.12,1.12,0,0,0-1.5.244l-1.119,1.441a0.478,0.478,0,0,1-.613.129l-0.213-.117a12.863,12.863,0,0,1-3.353-2.636,12.909,12.909,0,0,1-2.633-3.356l-0.117-.213a0.481,0.481,0,0,1,.126-0.616l1.438-1.12a1.124,1.124,0,0,0,.244-1.5l-2.562-3.846a1.114,1.114,0,0,0-1.5-.339l-1.607.966a2.269,2.269,0,0,0-1.033,1.343c-0.578,2.11-.143,5.751,5.215,11.117,4.263,4.267,7.436,5.414,9.618,5.414a5.6,5.6,0,0,0,1.486-.194,2.263,2.263,0,0,0,1.341-1.034l0.966-1.607a1.117,1.117,0,0,0-.338-1.506h0Z" transform="translate(-966.031 -26)"/>
</svg>
