<svg xmlns="http://www.w3.org/2000/svg" width="75.19" height="76.093" viewBox="0 0 75.19 76.093">
  <defs>
    <style>
      .cls-1 {
        fill: #159822;
        fill-rule: evenodd;
      }
    </style>
  </defs>
  <path id="Фигура_35" data-name="Фигура 35" class="cls-1" d="M1126.42,943.9c-0.27.161-.47,0.272-0.66,0.393-0.93.593-1.45,0.617-1.82,0.08-0.38-.565-0.15-1.02.85-1.664,0.9-.582,1.8-1.165,2.8-1.809-2.62-3.516-4.79-7.291-7.64-10.563-0.09.042-.17,0.083-0.25,0.126-0.01.245-.04,0.49-0.04,0.735,0,1.978-.03,3.956.02,5.934a2.209,2.209,0,0,0,.45,1.227c2.06,2.671,3.17,5.569,2.24,8.971a6.05,6.05,0,0,1-.72,1.694,3.877,3.877,0,0,0-.56,2.251c0.02,5.574.01,11.149,0.01,16.723,0,1.34-.22,1.552-1.57,1.553h-17.32c-1.28,0-1.51-.227-1.51-1.534,0-3.417.01-6.834-.02-10.25a1.885,1.885,0,0,0-.43-1.159q-1.71-1.976-3.53-3.861a2.029,2.029,0,0,0-2.84-.372,18,18,0,0,0-4.73,4.248,0.8,0.8,0,0,0,.34,1.42c2.02,0.849,4.06,1.67,6.14,2.391,1.06,0.37,1.33.741,0.84,1.785-0.2.442-.43,0.874-0.61,1.327a2.955,2.955,0,0,0,2.12,4.059c0.12,0.03.25,0.057,0.37,0.084a0.868,0.868,0,0,1,.77,1.119,0.9,0.9,0,0,1-1.1.714,4.871,4.871,0,0,1-4.2-5.5,18.557,18.557,0,0,1,.55-1.936c-0.23-.074-0.49-0.138-0.73-0.242-1.7-.721-3.42-1.387-5.07-2.193a2.613,2.613,0,0,1-1.36-3.436,0.959,0.959,0,0,0-.3-0.781,6.262,6.262,0,0,1-2.4-3.3,5.135,5.135,0,0,1,.66-4.283q5.85-8.59,11.76-17.143a7.977,7.977,0,0,1,5.07-3.231,1.185,1.185,0,0,0,.63-0.223,3.109,3.109,0,0,1,2.85-1.008c0.33,0.017.65,0,1.06,0a15.015,15.015,0,0,0-.02-1.517,1.022,1.022,0,0,0-.35-0.519c-0.95-.919-1.9-1.85-2.89-2.72a1.824,1.824,0,0,0-1.06-.366,4.183,4.183,0,0,1-4.14-2.951,4.063,4.063,0,0,1,1.9-4.693c0.18-.1.36-0.189,0.36-0.191a42.178,42.178,0,0,1-1.7-4.881,3.782,3.782,0,0,0-1.68-2.765,4.006,4.006,0,0,1-1.25-4.841,4.118,4.118,0,0,1,4.42-2.616,1.358,1.358,0,0,0,1.62-.844,5.733,5.733,0,0,0-8.74,1.531,13.738,13.738,0,0,0-1.71,5.862c-0.23,2.686-.4,5.379-0.62,8.065a19.9,19.9,0,0,1-.42,2.085,7.093,7.093,0,0,0,4.57-1.871,18.771,18.771,0,0,0,1.95-2.267,1.024,1.024,0,0,1,1.42-.478,0.981,0.981,0,0,1,.15,1.484,10.006,10.006,0,0,1-10.12,4.914,1.594,1.594,0,0,1-.81-0.2,1.3,1.3,0,0,1-.53-0.837,1.04,1.04,0,0,1,.55-0.805,2.083,2.083,0,0,0,1.39-2.1c0.21-2.688.39-5.379,0.61-8.066a16.13,16.13,0,0,1,1.79-6.4,7.65,7.65,0,0,1,11.63-2.484c0.12,0.091.25,0.178,0.39,0.285a13.306,13.306,0,0,1,5.53-2.42,12.584,12.584,0,0,1,14.54,10.611,13.037,13.037,0,0,1-.66,6.135c-0.32.9-.77,1.218-1.36,1.007s-0.71-.746-0.39-1.631a10.628,10.628,0,0,0-7.43-14.1,10.1,10.1,0,0,0-10.88,3.673c-2.79,3.472-3.12,7.365-1.28,11.429a3.765,3.765,0,0,0,.19.335c0.02,0.04.07,0.065,0.04,0.037a34.862,34.862,0,0,1,.98-3.678,10.2,10.2,0,0,1,5.4-5.736c0.96-.454,1.4-0.239,1.69.8a16.109,16.109,0,0,0,3.09,6.139,8.388,8.388,0,0,0,4.74,2.955,1.813,1.813,0,0,1,.86.314,7.12,7.12,0,0,0,2.97,1.341,3.712,3.712,0,0,1,2.6,3.569,3.936,3.936,0,0,1-2.11,3.752,0.975,0.975,0,0,1-1.53-.247,0.965,0.965,0,0,1,.58-1.368,2.158,2.158,0,0,0,1.17-2.308,2.071,2.071,0,0,0-1.85-1.78c-0.06.964-.06,1.936-0.2,2.888a8.306,8.306,0,0,1-3.57,5.882,2.1,2.1,0,0,0-1.01,2.588h1.6a2.61,2.61,0,0,1,2.49,1.494,1.459,1.459,0,0,0,.56.577,8.881,8.881,0,0,1,2.98,2.731c2.13,3.083,4.28,6.156,6.41,9.235,0.63,0.906.55,1.291-.35,1.887-0.34.222-.67,0.446-1.07,0.707,0.66,1.16,1.24,2.3,1.95,3.363a1.754,1.754,0,0,0,1.18.465c0.54,0.056.57-.423,0.68-0.834a3.475,3.475,0,0,1,2.46-2.528c0.93-.288,1.86-0.587,2.81-0.8a1.115,1.115,0,0,0,1.04-1.422,4.079,4.079,0,0,1,.05-1.3c0.37-1.908,1.92-2.865,4.2-2.57V906.957c-1.41-.25-1.43-0.247-1.72,1.069a12.244,12.244,0,0,0-.02,5.647,0.952,0.952,0,0,1-.61,1.352,0.936,0.936,0,0,1-1.17-.9,14.087,14.087,0,0,1,.55-8.4,1.457,1.457,0,0,1,1.05-.695,17.326,17.326,0,0,1,2.38-.033c1.21,0,1.45.244,1.45,1.43v30.254a17.431,17.431,0,0,1,2.53.019,4.261,4.261,0,0,1,3.62,4.168q0.045,2.349,0,4.7a4.163,4.163,0,0,1-2.34,3.8,0.945,0.945,0,0,0-.58,1.007q0.015,8.862.01,17.726c0,1.213-.23,1.436-1.43,1.438q-1.155,0-2.31,0c-1.07,0-1.35-.283-1.35-1.381,0-6.37.01-12.741-.02-19.112a7.726,7.726,0,0,0-.36-1.68c-0.18-.739-0.37-1.475-0.51-2.024-0.88-.452-1.69-0.881-2.51-1.281a0.88,0.88,0,0,0-.57-0.047q-1.8.524-3.6,1.09a1.686,1.686,0,0,0-1.27,2q0.39,3.055.81,6.107c0.11,0.826.45,0.972,1.11,0.462,1.33-1.046,2.65-2.109,3.97-3.161,0.65-.508,1.18-0.53,1.56-0.074a1.01,1.01,0,0,1-.38,1.508c-1.24,1-2.49,1.981-3.73,2.974-1.56,1.243-2.44,1.243-3.99-.041-0.55.311-1.13,0.646-1.71,0.954a5.017,5.017,0,0,1-6.48-1.376c-0.7-.89-1.38-1.79-2.06-2.695a0.943,0.943,0,0,1,.08-1.476,0.927,0.927,0,0,1,1.38.338c0.69,0.9,1.36,1.8,2.07,2.687a3.151,3.151,0,0,0,4.19.86,12.311,12.311,0,0,1,1.28-.7,1.056,1.056,0,0,0,.7-1.381c-0.21-1.136-.33-2.285-0.5-3.429a0.416,0.416,0,0,0-.08-0.106c-0.26.016-.56,0.046-0.86,0.05a2.936,2.936,0,0,1-2.73-1.558C1127.61,946.033,1127.04,945,1126.42,943.9Zm-7.22,7.717c-0.34.091-.56,0.161-0.78,0.21a5.485,5.485,0,0,1-.76.131,0.98,0.98,0,0,1-1.22-.862,1.045,1.045,0,0,1,1.02-1.019,4.172,4.172,0,0,0,1.92-.976,5.819,5.819,0,0,0,1.46-3.8,8.452,8.452,0,0,0-2.4-5.988,2.4,2.4,0,0,1-.65-1.727c0.03-2.824.01-5.649,0.01-8.473,0.01-.47-0.04-0.93-0.61-0.98-0.63-.054-1.26-0.012-1.92-0.012v0.954c0,1.9.03,3.8-.02,5.7a4.356,4.356,0,1,1-8.71-.08c-0.02-1.9,0-3.8,0-5.7V928.1c-0.53,0-.96,0-1.39,0-1.01,0-1.15.14-1.16,1.159,0,2.516-.04,5.033.02,7.547a4.043,4.043,0,0,1-1.03,2.987,7.772,7.772,0,0,0-2.02,5.578c0.12,2.879,1.49,4.394,4.32,4.746a0.922,0.922,0,1,1-.06,1.842,5.866,5.866,0,0,1-1.07-.081c-0.52-.082-1.02-0.2-1.54-0.306v16.081h16.59v-16.04ZM1107.98,903.8a8.234,8.234,0,0,0-4.18,5.917,50.122,50.122,0,0,0-.2,6.83,7.238,7.238,0,0,0,5.11,6.779,7.338,7.338,0,0,0,7.99-2.513,8.608,8.608,0,0,0,1.49-6.274,1.247,1.247,0,0,0-1.05-1.09c-0.49-.131-1-0.249-1.47-0.427-3.13-1.162-5.07-3.548-6.5-6.429C1108.73,905.7,1108.39,904.764,1107.98,903.8Zm-8.9,40.7a11.66,11.66,0,0,1,2.8-6.393,1.356,1.356,0,0,0,.23-0.85c0.02-2.386.02-4.773,0.02-7.159,0-.216-0.04-0.431-0.06-0.707a6.375,6.375,0,0,0-3.87,2.716q-2.31,3.362-4.61,6.724c-0.28.395-.54,0.8-0.83,1.241C1094.87,941.55,1096.94,943,1099.08,944.5Zm-7.39-2.909c-1.72,2.511-3.41,4.927-5.01,7.4a3.656,3.656,0,0,0-.47,1.823c-0.05,1.706,1.16,2.639,2.27,3.472,1.41-1.132,2.79-2.229,4.15-3.349a0.683,0.683,0,0,0,.16-0.529,3.643,3.643,0,0,1,1.11-2.992c0.8-.833,1.55-1.7,2.36-2.6C1094.73,943.732,1093.25,942.689,1091.69,941.587Zm56.87,1.648h0c0-.744.02-1.489,0-2.233a2.54,2.54,0,0,0-5.08-.021q-0.045,2.308,0,4.619a2.536,2.536,0,0,0,5.07.022C1148.58,944.827,1148.56,944.031,1148.56,943.235Zm-4.24,6.413v18h1.27V949.922C1145.15,949.826,1144.75,949.741,1144.32,949.648Zm-43.61,4.444c-0.14-2,.44-3.961-0.87-5.657a1.1,1.1,0,0,1-.2-0.492c-0.13-1.107-1.01-1.51-1.8-2-1.85,1.59-3.15,3.278-3.16,4.169C1097.63,949.881,1098.74,952.473,1100.71,954.092Zm12.67-28.71h-4.98c0,0.882-.05,1.832.01,2.775a2.522,2.522,0,0,0,2.48,2.374,2.482,2.482,0,0,0,2.48-2.271C1113.45,927.3,1113.38,926.318,1113.38,925.382Zm0.01,6.253a4.6,4.6,0,0,1-5,.035v0.957c0,0.769-.03,1.542.02,2.307a2.526,2.526,0,0,0,2.49,2.358,2.479,2.479,0,0,0,2.47-2.28C1113.45,933.948,1113.39,932.872,1113.39,931.635Zm-11.76-16.748a2.175,2.175,0,0,0-1.85,2.414,2.092,2.092,0,0,0,2.23,1.862C1101.89,917.749,1101.76,916.333,1101.63,914.887Zm40.18,24.223a1.264,1.264,0,0,0-1.5.368,3.346,3.346,0,0,0-.02,3.191,5.074,5.074,0,0,0,1.24.649C1141.63,941.818,1141.71,940.53,1141.81,939.11Zm-43.47-34.8c0.46-1.44.92-2.844,1.37-4.236a2.214,2.214,0,0,0-2.31,1.63A2.178,2.178,0,0,0,1098.34,904.314Zm56.49,20.284a3.133,3.133,0,0,0,3.82-.578,3.247,3.247,0,0,0,.39-3.854,10.893,10.893,0,0,1-1.13-2.837,36.315,36.315,0,0,1-.61-5.875,13.914,13.914,0,0,1,1.3-6.488c1.23-2.5-.4-4.821-3.19-4.828-4.7-.01-9.39,0-14.09,0-2.25,0-4.51-.023-6.77.009a3.234,3.234,0,0,0-3.28,3.769,17.356,17.356,0,0,0,.46,1.694,1.7,1.7,0,0,1,.01.922,26.346,26.346,0,0,0-2.04,7.942c-0.26,3.09.19,6,2.3,8.444a2.778,2.778,0,0,0,3.93.42c0.14-.1.27-0.21,0.41-0.315a1.5,1.5,0,0,0-.04.208c1.05,0.442,2.07.962,3.16,1.305,1,0.318,1.56.036,1.69-.616,0.11-.6-0.27-0.942-1.3-1.176a3.863,3.863,0,0,1-3.28-3.043c-0.17-.826-0.34-1.656-0.46-2.491a1.017,1.017,0,0,0-1.03-1.093,0.95,0.95,0,0,0-.82,1.243c0.2,1.185.47,2.361,0.77,3.522,0.12,0.43.18,0.819-.25,0.966a2.185,2.185,0,0,1-1.2,0,1.478,1.478,0,0,1-.55-0.616,9.35,9.35,0,0,1-1.49-6.383,25.1,25.1,0,0,1,1.71-7.08,1.105,1.105,0,0,1,1.32-.913,13.584,13.584,0,0,0,1.69.013,0.906,0.906,0,0,0,1.09-.912,0.915,0.915,0,0,0-1.07-.945c-0.74-.014-1.49-0.033-2.23,0a0.693,0.693,0,0,1-.78-0.552c-0.44-1.25-.09-2.5,1.64-2.485,6.8,0.04,13.6.016,20.4,0.018a3.723,3.723,0,0,1,.69.046,1.369,1.369,0,0,1,1.12,1.514c-0.12,1.07-.47,1.452-1.35,1.457a7.414,7.414,0,0,0-1.15.036,0.793,0.793,0,0,0-.77.958,1.587,1.587,0,0,0,.83.824,3.438,3.438,0,0,0,1.17.091c-0.06.387-.1,0.687-0.14,0.988-0.57,4.575-.55,9.073,1.75,13.269a1.291,1.291,0,0,1-1.72,1.805,5.963,5.963,0,0,1-2.61-2.321,13.184,13.184,0,0,1-1.64-5.4,0.949,0.949,0,0,0-1.05-1.04,0.924,0.924,0,0,0-.8,1.183,14.915,14.915,0,0,0,1.78,6,1.052,1.052,0,0,1-.75,1.771,3.047,3.047,0,0,1-2.61-.8,1.23,1.23,0,0,1-.57-1.166c0.02-4.5.01-8.991,0.01-13.486,0-.251.02-0.5,0.04-0.789h2.44c-0.07.594-.14,1.123-0.2,1.654s-0.13,1.071-.16,1.609a0.973,0.973,0,0,0,.85,1.224,1.054,1.054,0,0,0,1-1.138c0.17-1.3.34-2.6,0.54-3.887a1.01,1.01,0,0,0-1.13-1.377c-1.21-.018-2.41-0.01-3.62-0.01-1.39,0-1.62.227-1.62,1.6v27.9a1.22,1.22,0,0,0,.05.675,1.663,1.663,0,0,0,.94.7,1.622,1.622,0,0,0,.84-0.8,1.709,1.709,0,0,0,.03-0.757v-9.093c0-.269.02-0.539,0.04-0.918,2.11,1.18,4,1.177,5.63-.673C1153.77,923.98,1154.28,924.327,1154.83,924.6Zm-19.35-12.5a1.033,1.033,0,0,0-1.02,1.114,0.926,0.926,0,0,0,.92,1,1.1,1.1,0,0,0,.99-1.218A0.917,0.917,0,0,0,1135.48,912.1Zm-26.21,38.964c0.02,0.61.42,0.907,1.25,0.91,0.85,0,1.3-.332,1.28-0.962-0.01-.6-0.42-0.893-1.25-0.894C1109.67,950.116,1109.25,950.424,1109.27,951.063Zm3.61-35.979a0.857,0.857,0,0,0,.92.931,0.839,0.839,0,0,0,.9-0.858,0.867,0.867,0,0,0-.84-0.971A0.876,0.876,0,0,0,1112.88,915.084Zm-4.88.935a0.856,0.856,0,0,0,.92-0.923,0.836,0.836,0,0,0-.86-0.893,0.853,0.853,0,0,0-.96.86A0.871,0.871,0,0,0,1108,916.019Z" transform="translate(-1084.31 -893.438)"/>
</svg>
