<svg xmlns="http://www.w3.org/2000/svg" width="65.03" height="65.094" viewBox="0 0 65.03 65.094">
  <defs>
    <style>
      .cls-1 {
        fill: #159822;
        fill-rule: evenodd;
      }
    </style>
  </defs>
  <path id="Фигура_36" data-name="Фигура 36" class="cls-1" d="M1486.89,902.379a1.086,1.086,0,1,0,0-2.171h-28.01a4.33,4.33,0,0,0-2.91,1.12l-31.24,28.253a5.426,5.426,0,0,0-1.79,4.027v3.5a1.085,1.085,0,1,0,2.17,0v-3.5a3.266,3.266,0,0,1,1.07-2.416l4.35-3.931V952.3h-6.51a1.085,1.085,0,0,0,0,2.17h1.09v8.682a2.17,2.17,0,0,0,2.17,2.17h58.53a2.183,2.183,0,0,0,2.17-2.17V921.913a2.184,2.184,0,0,0-2.17-2.171h-6.51V902.379h7.59Zm-28.01,0h7.42v17.363h-6.51a1.086,1.086,0,0,0,0,2.171h1.09v7.6a1.089,1.089,0,0,1-1.09,1.085h-3.25V903.736l0.88-.8A2.172,2.172,0,0,1,1458.88,902.379Zm-8.84,28.215h-2.17a1.086,1.086,0,0,0,0,2.171h1.08v7.6a1.08,1.08,0,0,1-1.08,1.084h-3.25V914.518l9.75-8.821v24.9h-4.33ZM1432.7,925.3l9.75-8.822v24.967h-6.5a1.086,1.086,0,1,0,0,2.171h1.08v7.6a1.081,1.081,0,0,1-1.08,1.086h-3.25v-27Zm33.6,37.85a2.171,2.171,0,0,1-2.17-2.171v-6.511h10.84v6.511a2.171,2.171,0,0,1-2.17,2.171h-6.5Zm1.05-15.571a11.743,11.743,0,0,1-8.54-10.57A11.709,11.709,0,0,1,1467.35,947.58Zm0.44-5.954a12.2,12.2,0,0,1,.02-1.814,14.622,14.622,0,0,1,3.16-7.3,14.759,14.759,0,0,1,1.72,7.764,8.94,8.94,0,0,1-.19,1.151,15.187,15.187,0,0,0-1.47,3.9,0.067,0.067,0,0,0-.01.043,17.446,17.446,0,0,0-.41,2.588h-1.04A16.884,16.884,0,0,0,1467.79,941.626Zm7.63-.7a13.275,13.275,0,0,1,5.96-3.918,11.76,11.76,0,0,1-8.56,10.567A13.321,13.321,0,0,1,1475.42,940.93Zm1.72,9.2V952.3h-15.18v-2.171h15.18Zm8.67,13.023h-9.28a4.365,4.365,0,0,0,.61-2.171v-6.511a2.168,2.168,0,0,0,2.16-2.17v-2.171a2.168,2.168,0,0,0-2.16-2.17h-0.05a13.259,13.259,0,0,0,3.38-2.931,16.238,16.238,0,0,0,3.17-9.5,1.082,1.082,0,0,0-1.29-1.047,16.77,16.77,0,0,0-7.48,3.866,18.409,18.409,0,0,0-2.83-8.314,1.1,1.1,0,0,0-.79-0.466,1.11,1.11,0,0,0-.87.306,17.788,17.788,0,0,0-4.62,8.914,16.548,16.548,0,0,0-7.93-4.306,1.082,1.082,0,0,0-1.29,1.047,16.238,16.238,0,0,0,3.17,9.5,13.606,13.606,0,0,0,3.38,2.931h-1.13a2.176,2.176,0,0,0-2.17,2.17V952.3a2.176,2.176,0,0,0,2.17,2.17v6.511a4.355,4.355,0,0,0,.6,2.171h-35.28v-8.682h8.67a3.258,3.258,0,0,0,3.25-3.256v-7.6h8.67a3.251,3.251,0,0,0,3.25-3.255v-7.6h8.67a3.267,3.267,0,0,0,3.26-3.256v-7.6h22.76v41.239Zm-8.67-43.409h-8.67V902.379h8.67v17.363Z" transform="translate(-1422.94 -900.219)"/>
</svg>
